<?xml version="1.0" standalone="no"?><!DOCTYPE svg PUBLIC "-//W3C//DTD SVG 1.1//EN" "http://www.w3.org/Graphics/SVG/1.1/DTD/svg11.dtd"><svg t="1770108114490" class="icon" viewBox="0 0 1024 1024" version="1.1" xmlns="http://www.w3.org/2000/svg" p-id="6077" xmlns:xlink="http://www.w3.org/1999/xlink" width="200" height="200"><path d="M633.562295 185.748837c29.997643 0 22.742326 41.650605 2.063876 55.383318-20.686388 13.732713-35.006512 27.052651-44.881365 50.557023a194.004341 194.004341 0 0 0-12.494387 42.888931C685.754543 358.122171 766.015504 451.052155 766.015504 562.09662 766.015504 690.938047 657.979535 795.386047 524.700775 795.386047S283.386047 690.938047 283.386047 562.09662c0-76.863504 38.451597-145.042853 97.772155-187.542822-14.478884-23.417054-24.671256-47.945426-30.585055-73.585116-9.398574-40.745674-2.413147-75.553736 18.400248-81.380217 20.813395-5.834419 37.316465 15.193302 33.133148 46.961116-4.183318 31.759876-10.890915 37.626047-6.30276 62.376683 2.302016 12.415008 5.350202 22.623256 9.13662 30.60093 3.040248-1.690791 6.112248-3.31014 9.231876-4.858047 6.842543-3.413333 18.320868-9.319194 24.957023-16.796775 9.366822-10.581333 15.693395-23.742512 26.489055-26.314419 11.549767-2.754481 20.138667 9.358884 33.061705 14.804342 4.183318 1.762233 11.478326 2.83386 15.463194 2.667162a253.856744 253.856744 0 0 1 38.777054 1.365334c3.889612-36.879876 10.00186-65.73445 18.336744-86.579597 13.177054-32.950574 32.307597-58.066357 62.305241-58.066357z m101.106108 289.434791C697.471008 394.406698 608.287752 354.335752 535.47262 385.674915c-72.815132 31.331225-101.685581 122.221147-64.480248 203.006015 37.197395 80.768992 126.380651 120.847876 199.195783 89.508713 72.815132-31.339163 101.685581-122.229085 64.480248-203.006015z m-182.851473-76.522171c63.265736-27.227287 141.693023 9.636713 175.167504 82.332776 33.482419 72.696062 9.343008 153.711132-53.930667 180.938418-63.265736 27.227287-141.693023-9.636713-175.159565-82.332775-33.498295-72.696062-9.343008-153.703194 53.922728-180.930481z" fill="#345FE2" p-id="6078"></path></svg>