<?xml version="1.0" standalone="no"?><!DOCTYPE svg PUBLIC "-//W3C//DTD SVG 1.1//EN" "http://www.w3.org/Graphics/SVG/1.1/DTD/svg11.dtd"><svg t="1770983886016" class="icon" viewBox="0 0 1024 1024" version="1.1" xmlns="http://www.w3.org/2000/svg" p-id="8461" xmlns:xlink="http://www.w3.org/1999/xlink" width="200" height="200"><path d="M687.594057 14.628571c46.365257 0 35.159771 66.603886 3.189029 88.554058-31.970743 21.957486-54.111086 43.264-69.376 80.8448a318.368914 318.368914 0 0 0-19.317029 68.586057C768.270629 290.260114 892.342857 438.857143 892.342857 616.418743c0 206.014171-167.007086 373.028571-373.028571 373.028571s-373.028571-167.0144-373.028572-373.028571c0-122.909257 59.4432-231.936 151.1424-299.893029-22.381714-37.449143-38.136686-76.661029-47.279543-117.6576-14.533486-65.155657-3.730286-120.817371 28.445258-130.135771 32.168229-9.3184 57.680457 24.305371 51.214628 75.095771-6.465829 50.7904-16.837486 60.16-9.742628 99.744915 3.554743 19.850971 8.265143 36.161829 14.123885 48.925257a367.835429 367.835429 0 0 1 14.270172-7.767772c10.569143-5.456457 28.320914-14.891886 38.575543-26.858057 14.482286-16.910629 24.261486-37.961143 40.945371-42.071771 17.854171-4.4032 31.136914 14.957714 51.112229 23.669028 6.465829 2.816 17.737143 4.534857 23.895771 4.271543a379.4432 379.4432 0 0 1 59.947886 2.172343c6.012343-58.967771 15.4624-105.106286 28.342857-138.430171C611.657143 54.784 641.221486 14.628571 687.594057 14.628571z m156.291657 462.811429c-57.504914-129.162971-195.364571-193.243429-307.924114-143.125943-112.552229 50.102857-157.184 195.437714-99.671771 324.608 57.504914 129.155657 195.364571 193.243429 307.924114 143.125943 112.552229-50.117486 157.184-195.445029 99.671771-324.608zM561.225143 355.086629c97.792-43.541943 219.026286 15.403886 270.782171 131.642514 51.755886 116.245943 14.4384 245.781943-83.360914 289.323886-97.792 43.534629-219.026286-15.403886-270.774857-131.649829C426.101029 528.164571 463.433143 398.628571 561.225143 355.086629z" fill="#1296db" p-id="8462"></path></svg>